# Blender 3.4.1
# www.blender.org
mtllib OldPortraitWitch_01.mtl
o Witch_01_Linum_low
v -0.166307 -0.249461 0.006756
v 0.166307 -0.249461 0.006756
v -0.166307 0.249461 0.006756
v 0.166307 0.249461 0.006756
v -0.188206 0.271359 0.026526
v 0.188206 -0.271359 0.026526
v -0.188206 -0.271359 0.026526
v 0.188206 0.271359 0.026526
v -0.196568 0.279722 0.019915
v 0.196568 -0.279722 0.019915
v -0.196568 -0.279722 0.019915
v 0.196568 0.279722 0.019915
v -0.192459 -0.275612 0.026526
v -0.195975 -0.279128 0.023122
v -0.195975 0.279128 0.023122
v -0.192459 0.275612 0.026526
v 0.192459 0.275612 0.026526
v 0.195975 0.279128 0.023122
v 0.195975 -0.279128 0.023122
v 0.192459 -0.275612 0.026526
v -0.181183 -0.264337 0.022880
v -0.168551 -0.251704 0.019978
v -0.174988 -0.258141 0.020905
v 0.181183 0.264337 0.022880
v 0.168551 0.251704 0.019978
v 0.174988 0.258141 0.020905
v -0.168551 0.251704 0.019978
v -0.181183 0.264337 0.022880
v -0.174988 0.258141 0.020905
v 0.168551 -0.251704 0.019978
v 0.181183 -0.264337 0.022880
v 0.174988 -0.258141 0.020905
v -0.166995 -0.250148 0.019934
v -0.166307 -0.249461 0.019227
v -0.166508 -0.249662 0.019719
v 0.166995 -0.250148 0.019934
v 0.166307 -0.249461 0.019227
v 0.166508 -0.249662 0.019719
v -0.166307 0.249461 0.019227
v -0.166995 0.250148 0.019934
v -0.166508 0.249662 0.019719
v 0.166995 0.250148 0.019934
v 0.166307 0.249461 0.019227
v 0.166508 0.249662 0.019719
v -0.204169 0.287323 0.019915
v -0.204857 0.288011 0.019227
v -0.204656 0.287809 0.019714
v -0.204857 -0.288011 0.019227
v -0.204169 -0.287323 0.019915
v -0.204656 -0.287809 0.019714
v 0.204857 -0.288011 0.019227
v 0.204169 -0.287323 0.019915
v 0.204656 -0.287809 0.019714
v 0.204857 0.288011 0.019227
v 0.204169 0.287323 0.019915
v 0.204656 0.287809 0.019714
v -0.166307 -0.249461 0.000370
v -0.166677 -0.249831 -0.000000
v -0.166454 -0.249607 0.000108
v 0.166307 -0.249461 0.000370
v 0.166677 -0.249831 -0.000000
v 0.166454 -0.249607 0.000108
v -0.166677 0.249831 0.000000
v -0.166307 0.249461 0.000370
v -0.166454 0.249607 0.000108
v 0.166307 0.249461 0.000370
v 0.166677 0.249831 0.000000
v 0.166454 0.249607 0.000108
v -0.204857 0.288011 0.000370
v -0.204487 0.287641 0.000000
v -0.204710 0.287864 0.000108
v -0.204487 -0.287641 -0.000000
v -0.204857 -0.288011 0.000370
v -0.204710 -0.287864 0.000108
v 0.204487 -0.287641 -0.000000
v 0.204857 -0.288011 0.000370
v 0.204710 -0.287864 0.000108
v 0.204487 0.287641 0.000000
v 0.204857 0.288011 0.000370
v 0.204710 0.287864 0.000108
vn -0.0000 -0.0000 1.0000
vn 0.0643 -0.0643 0.9959
vn -0.0643 -0.0643 0.9959
vn -0.0572 -0.0572 0.9967
vn 0.0572 -0.0572 0.9967
vn 0.0586 0.0586 -0.9966
vn -0.0586 0.0586 -0.9966
vn 0.1707 -0.1707 -0.9704
vn -0.1707 -0.1707 -0.9704
vn -0.0000 0.9771 0.2129
vn -0.0000 0.9587 -0.2845
vn -0.0000 -0.9771 0.2129
vn -0.0000 -0.9587 -0.2845
vn -0.0000 -0.9778 -0.2097
vn -0.0000 -0.9855 0.1694
vn -0.1482 -0.1482 0.9778
vn 0.1482 -0.1482 0.9778
vn -0.0000 0.9778 -0.2097
vn -0.0000 0.9855 0.1694
vn 0.1482 0.1482 0.9778
vn -0.1482 0.1482 0.9778
vn 0.9778 -0.0000 -0.2097
vn 0.9856 -0.0000 0.1694
vn -0.9778 -0.0000 -0.2097
vn -0.9856 -0.0000 0.1694
vn -0.9771 -0.0000 0.2129
vn -0.9587 -0.0000 -0.2845
vn -0.0643 0.0643 0.9959
vn 0.0643 0.0643 0.9959
vn 0.0572 0.0572 0.9967
vn -0.0572 0.0572 0.9967
vn 0.0624 -0.0624 0.9961
vn -0.0624 -0.0624 0.9961
vn 0.2939 0.2938 0.9096
vn -0.2939 0.2938 0.9096
vn -0.0000 0.9221 0.3871
vn -0.0000 0.9833 0.1819
vn -0.0000 -0.9221 0.3871
vn -0.0000 -0.9833 0.1819
vn -0.2205 0.2205 0.9501
vn 0.2205 0.2205 0.9501
vn 0.0624 0.0624 0.9961
vn -0.0624 0.0624 0.9961
vn 0.2205 -0.2205 0.9501
vn -0.2205 -0.2205 0.9501
vn -0.0586 -0.0586 -0.9966
vn 0.1707 0.1707 -0.9704
vn 0.9771 -0.0000 0.2129
vn 0.9587 -0.0000 -0.2845
vn 0.0586 -0.0586 -0.9966
vn -0.1707 0.1707 -0.9704
vn -0.2939 -0.2938 0.9096
vn 0.2939 -0.2938 0.9096
vn 0.9221 -0.0000 0.3871
vn 0.9833 -0.0000 0.1819
vn -0.9221 -0.0000 0.3871
vn -0.9833 -0.0000 0.1819
vn 0.1342 0.1342 0.9818
vn 0.1342 -0.1342 0.9818
vn -0.1342 -0.1342 0.9818
vn -0.1342 0.1342 0.9818
vn 0.3477 0.3477 0.8708
vn 0.3477 -0.3477 0.8708
vn -0.3477 0.3477 0.8708
vn -0.3477 -0.3477 0.8708
vn -0.4975 -0.4975 0.7107
vn -0.4975 0.4975 0.7107
vn 0.4975 -0.4975 0.7107
vn 0.4975 0.4975 0.7107
vn 0.3333 0.3333 -0.8819
vn 0.3333 -0.3333 -0.8819
vn -0.3333 0.3333 -0.8819
vn -0.3333 -0.3333 -0.8819
vn -0.4624 -0.4625 -0.7565
vn -0.4624 0.4624 -0.7565
vn 0.4624 -0.4624 -0.7565
vn 0.4624 0.4625 -0.7565
vt 0.394270 0.149550
vt 0.863604 0.149550
vt 0.394270 0.853551
vt 0.863604 0.853551
vt 0.352239 0.934307
vt 0.318899 0.890986
vt 0.897814 0.063918
vt 0.936426 0.109101
vt 0.354078 0.063918
vt 0.318899 0.109081
vt 0.895976 0.934307
vt 0.936426 0.891006
vt 0.340160 0.952230
vt 0.301023 0.903034
vt 0.909894 0.045994
vt 0.954302 0.097053
vt 0.341998 0.045994
vt 0.301023 0.097033
vt 0.908056 0.952231
vt 0.954302 0.903054
vt 0.347934 0.057774
vt 0.312772 0.102953
vt 0.342855 0.050705
vt 0.305721 0.097888
vt 0.341017 0.947519
vt 0.305721 0.902179
vt 0.346096 0.940450
vt 0.312772 0.897114
vt 0.902120 0.940450
vt 0.942553 0.897134
vt 0.907199 0.947520
vt 0.949604 0.902200
vt 0.909037 0.050705
vt 0.949604 0.097908
vt 0.903958 0.057775
vt 0.942553 0.102974
vt 0.330298 0.119198
vt 0.364222 0.075347
vt 0.382470 0.094135
vt 0.349037 0.137398
vt 0.339668 0.128124
vt 0.373172 0.084741
vt 0.925026 0.880889
vt 0.885832 0.922877
vt 0.867584 0.904090
vt 0.906288 0.862689
vt 0.915657 0.871963
vt 0.876882 0.913484
vt 0.380631 0.904090
vt 0.349037 0.862669
vt 0.330298 0.880869
vt 0.362383 0.922877
vt 0.339668 0.871943
vt 0.371333 0.913483
vt 0.869422 0.094135
vt 0.906288 0.137418
vt 0.925027 0.119218
vt 0.887671 0.075348
vt 0.915657 0.128145
vt 0.878721 0.084742
vt 0.384718 0.096384
vt 0.351280 0.139640
vt 0.352811 0.140631
vt 0.385711 0.097920
vt 0.352046 0.140341
vt 0.385420 0.097152
vt 0.867174 0.096384
vt 0.904045 0.139660
vt 0.866182 0.097920
vt 0.902514 0.140651
vt 0.866472 0.097152
vt 0.903279 0.140361
vt 0.352811 0.859437
vt 0.383872 0.900305
vt 0.382879 0.901840
vt 0.351280 0.860427
vt 0.352046 0.859727
vt 0.383581 0.901073
vt 0.904045 0.860447
vt 0.865336 0.901841
vt 0.902514 0.859457
vt 0.864343 0.900305
vt 0.903279 0.859747
vt 0.864634 0.901073
vt 0.290071 0.913985
vt 0.329179 0.963211
vt 0.288413 0.915069
vt 0.328186 0.964731
vt 0.289243 0.914751
vt 0.328477 0.963971
vt 0.288413 0.085091
vt 0.330025 0.033494
vt 0.290071 0.086082
vt 0.331018 0.035014
vt 0.289243 0.085381
vt 0.330316 0.034254
vt 0.921868 0.033494
vt 0.966912 0.085019
vt 0.920874 0.035014
vt 0.965254 0.086102
vt 0.921577 0.034254
vt 0.966082 0.085336
vt 0.966912 0.914996
vt 0.920029 0.964731
vt 0.965254 0.914006
vt 0.919036 0.963211
vt 0.966082 0.914706
vt 0.919738 0.963971
vt 0.379979 0.140631
vt 0.385711 0.125160
vt 0.134265 0.940672
vt 0.197109 0.223686
vt 0.380699 0.140279
vt 0.196392 0.224331
vt 0.385499 0.125640
vt 0.133785 0.940350
vt 0.866182 0.125160
vt 0.875346 0.140651
vt 0.134265 0.460285
vt 0.006103 0.936764
vt 0.866417 0.125640
vt 0.133785 0.460716
vt 0.874627 0.140440
vt 0.005386 0.936444
vt 0.125942 0.935517
vt 0.197109 0.940670
vt 0.379979 0.859437
vt 0.383872 0.873065
vt 0.380698 0.859648
vt 0.196393 0.940350
vt 0.383637 0.872585
vt 0.126422 0.935085
vt 0.875346 0.859457
vt 0.864343 0.873065
vt 0.006102 0.219780
vt 0.125942 0.455130
vt 0.874626 0.859808
vt 0.005385 0.220425
vt 0.864555 0.872585
vt 0.126422 0.455451
vt 0.261242 0.915069
vt 0.328186 0.991971
vt 0.071456 0.990003
vt 0.251364 0.994924
vt 0.252190 0.995245
vt 0.260412 0.914857
vt 0.070866 0.990534
vt 0.328475 0.992563
vt 0.188751 0.995158
vt 0.251363 0.169431
vt 0.261242 0.085091
vt 0.330025 0.006254
vt 0.252190 0.168688
vt 0.260412 0.085497
vt 0.189341 0.995480
vt 0.330236 0.005662
vt 0.188751 0.405798
vt 0.060357 0.991018
vt 0.921868 0.006254
vt 0.994083 0.085019
vt 0.189341 0.405267
vt 0.921578 0.005662
vt 0.061183 0.991338
vt 0.994913 0.085230
vt 0.060357 0.165525
vt 0.071456 0.400643
vt 0.994083 0.914996
vt 0.920029 0.991971
vt 0.061183 0.164782
vt 0.994913 0.914590
vt 0.070866 0.400322
vt 0.919817 0.992563
s 0
usemtl OldPortraitWitch_01
f 1/1/1 2/2/1 4/4/1 3/3/1
s 1
f 40/75/2 42/80/3 25/45/4 27/49/5
f 58/111/6 61/119/7 75/157/8 72/149/9
f 34/64/10 37/69/10 60/117/11 57/110/11
f 43/82/12 39/74/12 64/128/13 66/134/13
f 73/152/14 76/159/14 51/97/15 48/92/15
f 10/15/1 11/17/1 49/94/16 52/99/17
f 79/168/18 69/142/18 46/88/19 54/104/19
f 12/20/1 10/16/1 52/100/17 55/105/20
f 11/18/1 9/14/1 45/85/21 49/93/16
f 76/160/22 79/167/22 54/103/23 51/98/23
f 69/141/24 73/151/24 48/91/25 46/87/25
f 37/70/26 43/81/26 66/133/27 60/118/27
f 9/13/1 12/19/1 55/106/20 45/86/21
f 36/67/28 33/61/29 22/39/30 30/55/31
f 5/5/32 8/11/33 17/29/34 16/27/35
f 15/25/36 18/31/36 12/19/37 9/13/37
f 19/33/38 14/23/38 11/17/39 10/15/39
f 31/58/40 21/38/41 7/9/42 6/7/43
f 28/52/44 24/44/45 8/11/33 5/5/32
f 61/120/7 67/135/46 78/165/47 75/158/8
f 39/73/48 34/63/48 57/109/49 64/127/49
f 67/136/46 63/125/50 70/143/51 78/166/47
f 24/43/45 31/57/40 6/8/43 8/12/33
f 21/37/41 28/51/44 5/6/32 7/10/42
f 6/7/43 7/9/42 13/21/52 20/35/53
f 18/32/54 19/34/54 10/16/55 12/20/55
f 8/12/33 6/8/43 20/36/53 17/30/34
f 7/10/42 5/6/32 16/28/35 13/22/52
f 14/23/38 19/33/38 20/35/53 13/21/52
f 18/31/36 15/25/36 16/27/35 17/29/34
f 19/34/54 18/32/54 17/30/34 20/36/53
f 15/26/56 14/24/56 13/22/52 16/28/35
f 14/24/56 15/26/56 9/14/57 11/18/57
f 28/51/44 21/37/41 23/41/58 29/53/59
f 29/53/59 23/41/58 22/40/30 27/50/5
f 31/57/40 24/43/45 26/47/60 32/59/61
f 32/59/61 26/47/60 25/46/4 30/56/31
f 24/44/45 28/52/44 29/54/59 26/48/60
f 26/48/60 29/54/59 27/49/5 25/45/4
f 21/38/41 31/58/40 32/60/61 23/42/58
f 23/42/58 32/60/61 30/55/31 22/39/30
f 42/79/3 36/68/28 30/56/31 25/46/4
f 40/76/2 33/62/29 35/65/62 41/77/63
f 41/77/63 35/65/62 34/63/48 39/73/48
f 33/61/29 36/67/28 38/71/64 35/66/62
f 35/66/62 38/71/64 37/69/10 34/64/10
f 36/68/28 42/79/3 44/83/65 38/72/64
f 38/72/64 44/83/65 43/81/26 37/70/26
f 42/80/3 40/75/2 41/78/63 44/84/65
f 44/84/65 41/78/63 39/74/12 43/82/12
f 46/87/25 48/91/25 50/95/66 47/89/67
f 47/89/67 50/95/66 49/93/16 45/85/21
f 48/92/15 51/97/15 53/101/68 50/96/66
f 50/96/66 53/101/68 52/99/17 49/94/16
f 51/98/23 54/103/23 56/107/69 53/102/68
f 53/102/68 56/107/69 55/105/20 52/100/17
f 54/104/19 46/88/19 47/90/67 56/108/69
f 56/108/69 47/90/67 45/86/21 55/106/20
f 33/62/29 40/76/2 27/50/5 22/40/30
f 64/127/49 57/109/49 59/113/70 65/129/71
f 65/130/71 59/114/70 58/112/6 63/126/50
f 57/110/11 60/117/11 62/121/72 59/115/70
f 59/116/70 62/122/72 61/119/7 58/111/6
f 60/118/27 66/133/27 68/137/73 62/123/72
f 62/124/72 68/138/73 67/135/46 61/120/7
f 66/134/13 64/128/13 65/131/71 68/139/73
f 68/140/73 65/132/71 63/125/50 67/136/46
f 70/144/51 72/150/9 74/153/74 71/145/75
f 71/146/75 74/154/74 73/151/24 69/141/24
f 72/149/9 75/157/8 77/161/76 74/155/74
f 74/156/74 77/162/76 76/159/14 73/152/14
f 75/158/8 78/165/47 80/169/77 77/163/76
f 77/164/76 80/170/77 79/167/22 76/160/22
f 78/166/47 70/143/51 71/147/75 80/171/77
f 80/172/77 71/148/75 69/142/18 79/168/18
f 63/126/50 58/112/6 72/150/9 70/144/51
